<?xml version="1.0" encoding="UTF-8" standalone="no"?>
<!-- Created with Inkscape (http://www.inkscape.org/) -->

<svg
   xmlns:dc="http://purl.org/dc/elements/1.1/"
   xmlns:cc="http://creativecommons.org/ns#"
   xmlns:rdf="http://www.w3.org/1999/02/22-rdf-syntax-ns#"
   xmlns:svg="http://www.w3.org/2000/svg"
   xmlns="http://www.w3.org/2000/svg"
   xmlns:sodipodi="http://sodipodi.sourceforge.net/DTD/sodipodi-0.dtd"
   xmlns:inkscape="http://www.inkscape.org/namespaces/inkscape"
   width="210mm"
   height="297mm"
   viewBox="0 0 210 297"
   version="1.1"
   id="svg8"
   sodipodi:docname="text.svg"
   inkscape:version="0.92.4 (5da689c313, 2019-01-14)">
  <defs
     id="defs2" />
  <sodipodi:namedview
     id="base"
     pagecolor="#ffffff"
     bordercolor="#666666"
     borderopacity="1.0"
     inkscape:pageopacity="0.0"
     inkscape:pageshadow="2"
     inkscape:zoom="2.5693068"
     inkscape:cx="71.366474"
     inkscape:cy="1114.7729"
     inkscape:document-units="mm"
     inkscape:current-layer="layer1"
     showgrid="false"
     inkscape:window-width="956"
     inkscape:window-height="583"
     inkscape:window-x="960"
     inkscape:window-y="0"
     inkscape:window-maximized="0" />
  <metadata
     id="metadata5">
    <rdf:RDF>
      <cc:Work
         rdf:about="">
        <dc:format>image/svg+xml</dc:format>
        <dc:type
           rdf:resource="http://purl.org/dc/dcmitype/StillImage" />
      </cc:Work>
    </rdf:RDF>
  </metadata>
  <g
     inkscape:label="F.SilkS"
     inkscape:groupmode="layer"
     id="layer1">
    <path
       style="font-style:normal;font-variant:normal;font-weight:normal;font-stretch:normal;font-size:2.57527781px;line-height:125%;font-family:'Open sans light';-inkscape-font-specification:'Open sans light, ';letter-spacing:0px;word-spacing:0px;fill:#000000;fill-opacity:1;stroke:none;stroke-width:0.24629045px;stroke-linecap:butt;stroke-linejoin:miter;stroke-opacity:1"
       d="m 0.47128906,2.2523314 v 0.883667 h 0.52451578 c 0.19196546,0 0.33985116,-0.042064 0.44441736,-0.1271241 0.1045665,-0.085058 0.1570963,-0.2066885 0.1570963,-0.3643188 0,-0.1178322 -0.032383,-0.2093693 -0.097152,-0.2749185 C 1.4447615,2.312205 1.3567675,2.275246 1.2469523,2.2523314 Z m 0.11937256,0.039791 H 0.9673828 c 0.3339888,0 0.5012614,0.1175486 0.5012614,0.3524332 0,0.2575147 -0.1586021,0.3865399 -0.4754232,0.3865399 H 0.59066162 Z"
       id="path2005"
       inkscape:connector-curvature="0" />
    <path
       inkscape:connector-curvature="0"
       id="path2007"
       style="font-style:normal;font-variant:normal;font-weight:normal;font-stretch:normal;font-size:2.57527781px;line-height:125%;font-family:'Open sans light';-inkscape-font-specification:'Open sans light, ';letter-spacing:0px;word-spacing:0px;fill:#000000;fill-opacity:1;stroke:none;stroke-width:0.24629045px;stroke-linecap:butt;stroke-linejoin:miter;stroke-opacity:1"
       d="m 2.4458607,1.8392904 q 0.080766,0 0.1732371,0.016388 l -0.02224,0.1111994 q -0.079595,-0.019899 -0.1650434,-0.019899 -0.1627025,0 -0.2668789,0.1381215 Q 2.060759,2.2232216 2.060759,2.4339153 V 3.1362277 H 1.9448777 V 1.8638713 h 0.098324 l 0.011706,0.2294221 h 0.00819 Q 2.1415237,1.9528309 2.2304832,1.8966459 2.3194428,1.83929 2.445859,1.83929 Z" />
    <path
       inkscape:connector-curvature="0"
       id="path2009"
       style="font-style:normal;font-variant:normal;font-weight:normal;font-stretch:normal;font-size:2.57527781px;line-height:125%;font-family:'Open sans light';-inkscape-font-specification:'Open sans light, ';letter-spacing:0px;word-spacing:0px;fill:#000000;fill-opacity:1;stroke:none;stroke-width:0.24629045px;stroke-linecap:butt;stroke-linejoin:miter;stroke-opacity:1"
       d="m 3.928911,2.4982937 q 0,0.3113586 -0.1509972,0.4869368 -0.1509972,0.1744076 -0.4167055,0.1744076 -0.1673845,0 -0.2949713,-0.080766 -0.1275868,-0.080766 -0.1954771,-0.2317631 -0.06789,-0.1509973 -0.06789,-0.3488153 0,-0.3113586 0.1509972,-0.4845958 0.1509972,-0.1744076 0.4143645,-0.1744076 0.2621967,0 0.4108529,0.1767487 0.1498266,0.1755781 0.1498265,0.4822547 z m -1.0043071,0 q 0,0.2621967 0.1147111,0.4096825 0.1158816,0.1463151 0.3265754,0.1463151 0.2106938,0 0.3254049,-0.1463151 0.1158815,-0.1474858 0.1158815,-0.4096825 0,-0.2633672 -0.1170521,-0.4085118 -0.1158816,-0.1451446 -0.3265754,-0.1451446 -0.2106937,0 -0.3254048,0.1451446 Q 2.9246039,2.233756 2.9246039,2.4982937 Z" />
    <path
       inkscape:connector-curvature="0"
       id="path2011"
       style="font-style:normal;font-variant:normal;font-weight:normal;font-stretch:normal;font-size:2.57527781px;line-height:125%;font-family:'Open sans light';-inkscape-font-specification:'Open sans light, ';letter-spacing:0px;word-spacing:0px;fill:#000000;fill-opacity:1;stroke:none;stroke-width:0.24629045px;stroke-linecap:butt;stroke-linejoin:miter;stroke-opacity:1"
       d="m 5.0701689,2.8049703 q 0,0.170896 -0.1299278,0.2633672 -0.1299278,0.091301 -0.3687142,0.091301 -0.2551735,0 -0.4050003,-0.078425 v -0.125246 q 0.1919655,0.095983 0.4050003,0.095983 0.188454,0 0.2856072,-0.062037 0.098324,-0.063208 0.098324,-0.1673845 0,-0.095983 -0.078425,-0.161532 Q 4.7997786,2.595447 4.6218593,2.5322389 4.4310645,2.4631781 4.35381,2.4140162 4.2765557,2.3636838 4.2367579,2.3016462 4.1981307,2.238438 4.1981307,2.1483079 q 0,-0.1428036 0.1193931,-0.2259105 0.1205637,-0.083107 0.3359396,-0.083107 0.2060118,0 0.3909541,0.077254 L 5.0011085,2.021892 Q 4.8138251,1.944638 4.6534637,1.944638 q -0.1556792,0 -0.2469799,0.051503 -0.091301,0.051503 -0.091301,0.1428035 0,0.099494 0.070232,0.159191 0.071402,0.059696 0.2774135,0.1334394 0.1720666,0.062037 0.2504915,0.11237 0.078425,0.049162 0.1170521,0.11237 0.039798,0.063208 0.039797,0.1486554 z" />
    <path
       inkscape:connector-curvature="0"
       id="path2013"
       style="font-style:normal;font-variant:normal;font-weight:normal;font-stretch:normal;font-size:2.57527781px;line-height:125%;font-family:'Open sans light';-inkscape-font-specification:'Open sans light, ';letter-spacing:0px;word-spacing:0px;fill:#000000;fill-opacity:1;stroke:none;stroke-width:0.24629045px;stroke-linecap:butt;stroke-linejoin:miter;stroke-opacity:1"
       d="m 5.9141147,3.1596381 q -0.2774135,0 -0.4330927,-0.170896 Q 5.3265132,2.817846 5.3265132,2.5099989 q 0,-0.3043354 0.1498266,-0.4869367 0.1498268,-0.1837718 0.4038299,-0.1837718 0.22474,0 0.3546678,0.1568498 0.1299279,0.1568499 0.1299279,0.4260696 v 0.093642 h -0.916518 q 0.00234,0.2621968 0.1217341,0.4003183 0.1205637,0.1381215 0.3441332,0.1381215 0.1088585,0 0.190795,-0.015217 0.083107,-0.015217 0.2095233,-0.065549 v 0.1053471 q -0.1076879,0.046821 -0.1989886,0.063208 -0.091301,0.017558 -0.2013297,0.017557 z M 5.8801697,1.9422962 q -0.1837718,0 -0.2949714,0.1217342 -0.1111995,0.1205637 -0.1299278,0.3488154 h 0.7865902 q 0,-0.2212286 -0.095983,-0.3453038 -0.095982,-0.1252458 -0.265708,-0.1252458 z" />
    <path
       inkscape:connector-curvature="0"
       id="path2015"
       style="font-style:normal;font-variant:normal;font-weight:normal;font-stretch:normal;font-size:2.57527781px;line-height:125%;font-family:'Open sans light';-inkscape-font-specification:'Open sans light, ';letter-spacing:0px;word-spacing:0px;fill:#000000;fill-opacity:1;stroke:none;stroke-width:0.24629045px;stroke-linecap:butt;stroke-linejoin:miter;stroke-opacity:1"
       d="M 7.4872951,3.1362277 H 7.367902 V 1.4249259 h 0.9375874 v 0.110029 H 7.4872951 V 2.260678 h 0.772544 v 0.1111995 h -0.772544 z" />
    <path
       inkscape:connector-curvature="0"
       id="path2017"
       style="font-style:normal;font-variant:normal;font-weight:normal;font-stretch:normal;font-size:2.57527781px;line-height:125%;font-family:'Open sans light';-inkscape-font-specification:'Open sans light, ';letter-spacing:0px;word-spacing:0px;fill:#000000;fill-opacity:1;stroke:none;stroke-width:0.24629045px;stroke-linecap:butt;stroke-linejoin:miter;stroke-opacity:1"
       d="M 8.6578159,3.1362277 H 8.5419343 V 1.3148969 h 0.1158816 z" />
    <path
       inkscape:connector-curvature="0"
       id="path2019"
       style="font-style:normal;font-variant:normal;font-weight:normal;font-stretch:normal;font-size:2.57527781px;line-height:125%;font-family:'Open sans light';-inkscape-font-specification:'Open sans light, ';letter-spacing:0px;word-spacing:0px;fill:#000000;fill-opacity:1;stroke:none;stroke-width:0.24629045px;stroke-linecap:butt;stroke-linejoin:miter;stroke-opacity:1"
       d="M 9.2009381,3.1362277 H 9.0850564 V 1.8638713 H 9.2009381 Z M 9.0686692,1.5103739 q 0,-0.11237 0.073743,-0.11237 0.036286,0 0.056185,0.029262 0.021069,0.029263 0.021069,0.083107 0,0.052674 -0.021069,0.083107 -0.019899,0.030434 -0.056185,0.030434 -0.073743,0 -0.073743,-0.11354 z" />
    <path
       inkscape:connector-curvature="0"
       id="path2021"
       style="font-style:normal;font-variant:normal;font-weight:normal;font-stretch:normal;font-size:2.57527781px;line-height:125%;font-family:'Open sans light';-inkscape-font-specification:'Open sans light, ';letter-spacing:0px;word-spacing:0px;fill:#000000;fill-opacity:1;stroke:none;stroke-width:0.24629045px;stroke-linecap:butt;stroke-linejoin:miter;stroke-opacity:1"
       d="m 10.172471,3.1596381 q -0.2938009,0 -0.4284109,-0.2200579 h -0.00819 l 0.00354,0.098324 q 0.00465,0.086619 0.00465,0.1896244 V 3.7121241 H 9.628179 V 1.8638713 H 9.726502 L 9.74874,2.0453021 h 0.00698 q 0.1310979,-0.2060117 0.419046,-0.2060117 0.257515,0 0.392124,0.1697255 0.135781,0.1685551 0.135781,0.4916189 0,0.3136997 -0.142803,0.4869367 -0.141633,0.1720666 -0.387443,0.1720666 z m -0.0023,-0.1030058 q 0.195477,0 0.301994,-0.1451446 0.107688,-0.1451446 0.107688,-0.4061708 0,-0.5606796 -0.405,-0.5606796 -0.222399,0 -0.3265754,0.1229047 -0.1041765,0.1217342 -0.1041765,0.3979771 v 0.037457 q 0,0.2984828 0.099494,0.4260696 0.1006653,0.1275868 0.3265759,0.1275866 z" />
    <path
       inkscape:connector-curvature="0"
       id="path2023"
       style="font-style:normal;font-variant:normal;font-weight:normal;font-stretch:normal;font-size:2.57527781px;line-height:125%;font-family:'Open sans light';-inkscape-font-specification:'Open sans light, ';letter-spacing:0px;word-spacing:0px;fill:#000000;fill-opacity:1;stroke:none;stroke-width:0.24629045px;stroke-linecap:butt;stroke-linejoin:miter;stroke-opacity:1"
       d="m 11.522081,1.8392904 q 0.138121,0 0.238787,0.050333 0.100665,0.050333 0.18026,0.1720666 h 0.007 q -0.007,-0.1474857 -0.007,-0.2891188 V 1.3148969 h 0.114711 v 1.8213308 h -0.07609 l -0.02926,-0.1943065 h -0.0094 q -0.145144,0.2177169 -0.416706,0.2177169 -0.263366,0 -0.402659,-0.1638728 -0.139292,-0.163873 -0.139292,-0.4775727 0,-0.3300869 0.138121,-0.5044946 0.138122,-0.1744076 0.40149,-0.1744076 z m 0,0.1053469 q -0.208353,0 -0.313699,0.1463151 -0.104177,0.1463152 -0.104177,0.4248991 0,0.5407808 0.420217,0.5407808 0.215377,0 0.316041,-0.1252457 0.100665,-0.1252458 0.100665,-0.413194 v -0.019899 q 0,-0.2949713 -0.09949,-0.4237285 -0.09832,-0.1299277 -0.319553,-0.1299277 z" />
    <path
       inkscape:connector-curvature="0"
       id="path2025"
       style="font-style:normal;font-variant:normal;font-weight:normal;font-stretch:normal;font-size:2.57527781px;line-height:125%;font-family:'Open sans light';-inkscape-font-specification:'Open sans light, ';letter-spacing:0px;word-spacing:0px;fill:#000000;fill-opacity:1;stroke:none;stroke-width:0.24629045px;stroke-linecap:butt;stroke-linejoin:miter;stroke-opacity:1"
       d="m 13.536548,2.4982937 q 0,0.3113586 -0.150997,0.4869368 -0.150998,0.1744076 -0.416706,0.1744076 -0.167385,0 -0.294972,-0.080766 -0.127586,-0.080766 -0.195477,-0.2317631 -0.06789,-0.1509973 -0.06789,-0.3488153 0,-0.3113586 0.150997,-0.4845958 0.150997,-0.1744076 0.414365,-0.1744076 0.262197,0 0.410853,0.1767487 0.149826,0.1755781 0.149826,0.4822547 z m -1.004307,0 q 0,0.2621967 0.114711,0.4096825 0.115881,0.1463151 0.326575,0.1463151 0.210694,0 0.325405,-0.1463151 0.115881,-0.1474858 0.115881,-0.4096825 0,-0.2633672 -0.117052,-0.4085118 -0.115881,-0.1451446 -0.326575,-0.1451446 -0.210694,0 -0.325405,0.1451446 -0.11354,0.1439741 -0.11354,0.4085118 z" />
    <path
       inkscape:connector-curvature="0"
       id="path2027"
       style="font-style:normal;font-variant:normal;font-weight:normal;font-stretch:normal;font-size:2.57527781px;line-height:125%;font-family:'Open sans light';-inkscape-font-specification:'Open sans light, ';letter-spacing:0px;word-spacing:0px;fill:#000000;fill-opacity:1;stroke:none;stroke-width:0.24629045px;stroke-linecap:butt;stroke-linejoin:miter;stroke-opacity:1"
       d="m 14.224815,3.0566323 q 0.110028,0 0.191965,-0.018728 v 0.093642 q -0.08428,0.028092 -0.194307,0.028092 -0.168554,0 -0.249321,-0.09013 -0.0796,-0.09013 -0.0796,-0.2832662 v -0.821706 h -0.188453 v -0.06789 l 0.188453,-0.052674 0.05852,-0.2879482 h 0.0597 V 1.8638707 H 14.38517 V 1.9645355 H 14.011774 V 2.769854 q 0,0.1463151 0.0515,0.2165464 0.0515,0.070232 0.161533,0.070232 z" />
    <path
       inkscape:connector-curvature="0"
       id="path2029"
       style="font-style:normal;font-variant:normal;font-weight:normal;font-stretch:normal;font-size:2.57527781px;line-height:125%;font-family:'Open sans light';-inkscape-font-specification:'Open sans light, ';letter-spacing:0px;word-spacing:0px;fill:#000000;fill-opacity:1;stroke:none;stroke-width:0.24629045px;stroke-linecap:butt;stroke-linejoin:miter;stroke-opacity:1"
       d="m 16.076579,1.5080329 q -0.321893,0 -0.506835,0.2060117 -0.184943,0.2060117 -0.184943,0.5641912 0,0.3663731 0.174407,0.5688733 0.174408,0.2025001 0.498642,0.2025001 0.215377,0 0.395637,-0.055015 v 0.1053469 q -0.169726,0.059696 -0.423729,0.059696 -0.36052,0 -0.567703,-0.2329337 Q 15.254873,2.69377 15.254873,2.275894 q 0,-0.2610262 0.09833,-0.4600148 0.09949,-0.1989886 0.284435,-0.3066766 0.186113,-0.1088584 0.431923,-0.1088584 0.250491,0 0.448309,0.093642 l -0.048,0.107688 q -0.187279,-0.093641 -0.393291,-0.093641 z" />
    <path
       inkscape:connector-curvature="0"
       id="path2031"
       style="font-style:normal;font-variant:normal;font-weight:normal;font-stretch:normal;font-size:2.57527781px;line-height:125%;font-family:'Open sans light';-inkscape-font-specification:'Open sans light, ';letter-spacing:0px;word-spacing:0px;fill:#000000;fill-opacity:1;stroke:none;stroke-width:0.24629045px;stroke-linecap:butt;stroke-linejoin:miter;stroke-opacity:1"
       d="m 17.858112,2.4982937 q 0,0.3113586 -0.150997,0.4869368 -0.150998,0.1744076 -0.416706,0.1744076 -0.167385,0 -0.294971,-0.080766 Q 16.867851,2.9981061 16.79996,2.847109 16.73207,2.6961117 16.73207,2.4982937 q 0,-0.3113586 0.150996,-0.4845958 0.150997,-0.1744076 0.414365,-0.1744076 0.262197,0 0.410853,0.1767487 0.149825,0.1755784 0.149825,0.4822549 z m -1.004308,0 q 0,0.2621967 0.114711,0.4096825 0.115882,0.1463151 0.326576,0.1463151 0.210694,0 0.325405,-0.1463151 0.115881,-0.1474858 0.115881,-0.4096825 0,-0.2633672 -0.117052,-0.4085118 -0.115881,-0.1451446 -0.326575,-0.1451446 -0.210694,0 -0.325405,0.1451446 -0.113541,0.1439741 -0.113541,0.4085118 z" />
    <path
       inkscape:connector-curvature="0"
       id="path2033"
       style="font-style:normal;font-variant:normal;font-weight:normal;font-stretch:normal;font-size:2.57527781px;line-height:125%;font-family:'Open sans light';-inkscape-font-specification:'Open sans light, ';letter-spacing:0px;word-spacing:0px;fill:#000000;fill-opacity:1;stroke:none;stroke-width:0.24629045px;stroke-linecap:butt;stroke-linejoin:miter;stroke-opacity:1"
       d="M 19.097694,3.1362277 V 2.3110103 q 0,-0.1919654 -0.08076,-0.2785839 -0.08076,-0.087789 -0.250491,-0.087789 -0.228252,0 -0.334769,0.1158816 -0.105347,0.1147111 -0.105347,0.3733962 V 3.1362277 H 18.21044 V 1.8638713 h 0.09832 L 18.331,2.038279 h 0.007 q 0.124075,-0.1989886 0.441286,-0.1989886 0.433093,0 0.433093,0.4646969 v 0.8322404 z" />
    <path
       inkscape:connector-curvature="0"
       id="path2035"
       style="font-style:normal;font-variant:normal;font-weight:normal;font-stretch:normal;font-size:2.57527781px;line-height:125%;font-family:'Open sans light';-inkscape-font-specification:'Open sans light, ';letter-spacing:0px;word-spacing:0px;fill:#000000;fill-opacity:1;stroke:none;stroke-width:0.24629045px;stroke-linecap:butt;stroke-linejoin:miter;stroke-opacity:1"
       d="m 19.960368,3.0566323 q 0.110028,0 0.191966,-0.018728 v 0.093642 q -0.08428,0.028092 -0.194308,0.028092 -0.168554,0 -0.249321,-0.09013 -0.0796,-0.09013 -0.0796,-0.2832662 v -0.821706 h -0.188453 v -0.06789 l 0.188453,-0.052674 0.05852,-0.2879482 h 0.0597 V 1.863871 h 0.373396 V 1.9645355 H 19.747327 V 2.769854 q 0,0.1463151 0.0515,0.2165464 0.0515,0.070232 0.161532,0.070232 z" />
    <path
       inkscape:connector-curvature="0"
       id="path2037"
       style="font-style:normal;font-variant:normal;font-weight:normal;font-stretch:normal;font-size:2.57527781px;line-height:125%;font-family:'Open sans light';-inkscape-font-specification:'Open sans light, ';letter-spacing:0px;word-spacing:0px;fill:#000000;fill-opacity:1;stroke:none;stroke-width:0.24629045px;stroke-linecap:butt;stroke-linejoin:miter;stroke-opacity:1"
       d="m 20.93073,1.8392904 q 0.08076,0 0.173237,0.016388 l -0.02224,0.1111994 q -0.0796,-0.019899 -0.165044,-0.019899 -0.162702,0 -0.266878,0.1381215 -0.104175,0.1381213 -0.104175,0.348815 V 3.1362277 H 20.429747 V 1.8638713 h 0.09832 l 0.01171,0.2294221 h 0.0082 Q 20.626398,1.9528309 20.715358,1.8966459 20.80432,1.83929 20.930733,1.83929 Z" />
    <path
       inkscape:connector-curvature="0"
       id="path2039"
       style="font-style:normal;font-variant:normal;font-weight:normal;font-stretch:normal;font-size:2.57527781px;line-height:125%;font-family:'Open sans light';-inkscape-font-specification:'Open sans light, ';letter-spacing:0px;word-spacing:0px;fill:#000000;fill-opacity:1;stroke:none;stroke-width:0.24629045px;stroke-linecap:butt;stroke-linejoin:miter;stroke-opacity:1"
       d="m 22.413779,2.4982937 q 0,0.3113586 -0.150997,0.4869368 -0.150997,0.1744076 -0.416706,0.1744076 -0.167383,0 -0.294971,-0.080766 -0.127587,-0.080766 -0.195476,-0.2317631 -0.06789,-0.1509973 -0.06789,-0.3488153 0,-0.3113586 0.150997,-0.4845958 0.150998,-0.1744076 0.414364,-0.1744076 0.262197,0 0.410854,0.1767487 0.149826,0.1755781 0.149826,0.4822547 z m -1.004307,0 q 0,0.2621967 0.114711,0.4096825 0.115882,0.1463151 0.326576,0.1463151 0.210694,0 0.325405,-0.1463151 0.115882,-0.1474858 0.115882,-0.4096825 0,-0.2633672 -0.117053,-0.4085118 -0.115882,-0.1451446 -0.326576,-0.1451446 -0.210693,0 -0.325405,0.1451446 -0.11354,0.1439741 -0.11354,0.4085118 z" />
    <path
       inkscape:connector-curvature="0"
       id="path2041"
       style="font-style:normal;font-variant:normal;font-weight:normal;font-stretch:normal;font-size:2.57527781px;line-height:125%;font-family:'Open sans light';-inkscape-font-specification:'Open sans light, ';letter-spacing:0px;word-spacing:0px;fill:#000000;fill-opacity:1;stroke:none;stroke-width:0.24629045px;stroke-linecap:butt;stroke-linejoin:miter;stroke-opacity:1"
       d="M 22.881989,3.1362277 H 22.766107 V 1.3148969 h 0.115882 z" />
    <path
       inkscape:connector-curvature="0"
       id="path2043"
       style="font-style:normal;font-variant:normal;font-weight:normal;font-stretch:normal;font-size:2.57527781px;line-height:125%;font-family:'Open sans light';-inkscape-font-specification:'Open sans light, ';letter-spacing:0px;word-spacing:0px;fill:#000000;fill-opacity:1;stroke:none;stroke-width:0.24629045px;stroke-linecap:butt;stroke-linejoin:miter;stroke-opacity:1"
       d="M 23.425109,3.1362277 H 23.309228 V 1.3148969 h 0.115881 z" />
    <path
       inkscape:connector-curvature="0"
       id="path2045"
       style="font-style:normal;font-variant:normal;font-weight:normal;font-stretch:normal;font-size:2.57527781px;line-height:125%;font-family:'Open sans light';-inkscape-font-specification:'Open sans light, ';letter-spacing:0px;word-spacing:0px;fill:#000000;fill-opacity:1;stroke:none;stroke-width:0.24629045px;stroke-linecap:butt;stroke-linejoin:miter;stroke-opacity:1"
       d="m 24.366209,3.1596381 q -0.277413,0 -0.433093,-0.170896 -0.154509,-0.1708961 -0.154509,-0.4787432 0,-0.3043354 0.149827,-0.4869367 0.149826,-0.1837718 0.403829,-0.1837718 0.224741,0 0.354669,0.1568498 0.129928,0.1568499 0.129928,0.4260696 v 0.093642 h -0.916518 q 0.0023,0.2621968 0.121733,0.4003183 0.120564,0.1381215 0.344134,0.1381215 0.108858,0 0.190795,-0.015217 0.08311,-0.015217 0.209523,-0.065549 V 3.078872 q -0.107688,0.046821 -0.198988,0.063208 -0.0913,0.017558 -0.20133,0.017558 z m -0.03395,-1.2173419 q -0.183771,0 -0.294971,0.1217342 -0.111199,0.1205637 -0.129928,0.3488154 h 0.78659 q 0,-0.2212286 -0.09598,-0.3453038 -0.09598,-0.1252458 -0.265709,-0.1252458 z" />
    <path
       inkscape:connector-curvature="0"
       id="path2047"
       style="font-style:normal;font-variant:normal;font-weight:normal;font-stretch:normal;font-size:2.57527781px;line-height:125%;font-family:'Open sans light';-inkscape-font-specification:'Open sans light, ';letter-spacing:0px;word-spacing:0px;fill:#000000;fill-opacity:1;stroke:none;stroke-width:0.24629045px;stroke-linecap:butt;stroke-linejoin:miter;stroke-opacity:1"
       d="m 25.668999,1.8392904 q 0.08076,0 0.173237,0.016388 l -0.02224,0.1111994 q -0.0796,-0.019899 -0.165044,-0.019899 -0.162702,0 -0.266878,0.1381215 Q 25.2839,2.2232216 25.2839,2.4339153 V 3.1362277 H 25.168016 V 1.8638713 h 0.09832 l 0.0117,0.2294221 h 0.0082 q 0.07842,-0.1404625 0.167383,-0.1966475 0.08896,-0.057356 0.215377,-0.057356 z" />
    <path
       inkscape:connector-curvature="0"
       id="path2049"
       style="font-style:normal;font-variant:normal;font-weight:normal;font-stretch:normal;font-size:2.57527781px;line-height:125%;font-family:'Open sans light';-inkscape-font-specification:'Open sans light, ';letter-spacing:0px;word-spacing:0px;fill:#000000;fill-opacity:1;stroke:none;stroke-width:0.24629045px;stroke-linecap:butt;stroke-linejoin:miter;stroke-opacity:1"
       d="M 27.001052,3.1362277 26.509433,1.8638713 h 0.119393 l 0.328917,0.8650151 q 0.06555,0.166214 0.09832,0.2902893 h 0.007 q 0.048,-0.1591909 0.09832,-0.2926303 L 27.4903,1.8638713 h 0.119393 l -0.491619,1.2723564 z" />
    <path
       inkscape:connector-curvature="0"
       id="path2051"
       style="font-style:normal;font-variant:normal;font-weight:normal;font-stretch:normal;font-size:2.57527781px;line-height:125%;font-family:'Open sans light';-inkscape-font-specification:'Open sans light, ';letter-spacing:0px;word-spacing:0px;fill:#000000;fill-opacity:1;stroke:none;stroke-width:0.24629045px;stroke-linecap:butt;stroke-linejoin:miter;stroke-opacity:1"
       d="M 28.408019,3.1362277 H 28.293308 V 1.8896228 q 0,-0.1697256 0.01405,-0.3523268 -0.01756,0.017558 -0.03628,0.033945 -0.01873,0.016387 -0.361691,0.2844367 l -0.06671,-0.083107 0.464698,-0.3476448 h 0.100664 z" />
    <path
       inkscape:connector-curvature="0"
       id="path2053"
       style="font-style:normal;font-variant:normal;font-weight:normal;font-stretch:normal;font-size:2.57527781px;line-height:125%;font-family:'Open sans light';-inkscape-font-specification:'Open sans light, ';letter-spacing:0px;word-spacing:0px;fill:#000000;fill-opacity:1;stroke:none;stroke-width:0.24629045px;stroke-linecap:butt;stroke-linejoin:miter;stroke-opacity:1"
       d="m 29.166517,3.0449271 q 0,-0.1147111 0.09364,-0.1147111 0.09598,0 0.09598,0.1147111 0,0.114711 -0.09598,0.114711 -0.09364,0 -0.09364,-0.114711 z" />
    <path
       inkscape:connector-curvature="0"
       id="path2055"
       style="font-style:normal;font-variant:normal;font-weight:normal;font-stretch:normal;font-size:2.57527781px;line-height:125%;font-family:'Open sans light';-inkscape-font-specification:'Open sans light, ';letter-spacing:0px;word-spacing:0px;fill:#000000;fill-opacity:1;stroke:none;stroke-width:0.24629045px;stroke-linecap:butt;stroke-linejoin:miter;stroke-opacity:1"
       d="m 30.783006,2.2758947 q 0,0.4506507 -0.138121,0.6671971 -0.136952,0.2165463 -0.415535,0.2165463 -0.26805,0 -0.407342,-0.2223989 -0.139292,-0.2235696 -0.139292,-0.6613445 0,-0.447139 0.13461,-0.6625149 0.13578,-0.2153759 0.412024,-0.2153759 0.27039,0 0.412023,0.2235696 0.141633,0.222399 0.141633,0.6543212 z m -0.973873,0 q 0,0.3979772 0.104176,0.5887722 0.104177,0.1896244 0.316041,0.1896244 0.221228,0 0.321893,-0.1966476 0.101835,-0.1966476 0.101835,-0.581749 0,-0.3792488 -0.101835,-0.5758963 -0.100665,-0.1966476 -0.321893,-0.1966476 -0.221229,0 -0.320723,0.1966476 -0.09949,0.1966475 -0.09949,0.5758963 z" />
    <g
       aria-label="24V DC 1A"
       style="font-style:normal;font-variant:normal;font-weight:normal;font-stretch:normal;font-size:10.58333302px;line-height:125%;font-family:'Open sans';-inkscape-font-specification:'Open sans';letter-spacing:0px;word-spacing:0px;fill:#000000;fill-opacity:1;stroke:none;stroke-width:0.26458332px;stroke-linecap:butt;stroke-linejoin:miter;stroke-opacity:1"
       id="text1755-6"
       transform="matrix(0.9308616,0,0,0.9308616,-0.89828418,-3.4597864)">
      <path
         d="M 49.003278,7.3367872 H 47.852702 V 7.2261308 l 0.489152,-0.5105287 q 0.206224,-0.2137682 0.289216,-0.3269396 0.08299,-0.1131714 0.121974,-0.2162831 0.03898,-0.1031117 0.03898,-0.2162831 0,-0.1647273 -0.108142,-0.267839 -0.108141,-0.1031117 -0.280413,-0.1031117 -0.230115,0 -0.440111,0.1672422 l -0.0679,-0.086765 q 0.230115,-0.1936489 0.510529,-0.1936489 0.240175,0 0.377238,0.1282609 0.13832,0.128261 0.13832,0.3533463 0,0.1823317 -0.09305,0.3533462 -0.09179,0.1697571 -0.336999,0.4199916 l -0.471547,0.484122 v 0.00503 h 0.983333 z"
         style="font-style:normal;font-variant:normal;font-weight:normal;font-stretch:normal;font-size:2.57527781px;font-family:'Open sans light';-inkscape-font-specification:'Open sans light, ';stroke-width:0.26458332px"
         id="path2058"
         inkscape:connector-curvature="0" />
      <path
         d="m 50.614084,6.8677547 h -0.31688 V 7.3367872 H 50.179003 V 6.8677547 h -0.94561 v -0.08425 L 50.145052,5.488321 h 0.152152 v 1.2712919 h 0.31688 z M 50.179003,6.7596131 V 6.2339949 q 0,-0.3797529 0.0176,-0.6375321 h -0.01006 q -0.02515,0.046526 -0.154668,0.2364024 l -0.648849,0.9267479 z"
         style="font-style:normal;font-variant:normal;font-weight:normal;font-stretch:normal;font-size:2.57527781px;font-family:'Open sans light';-inkscape-font-specification:'Open sans light, ';stroke-width:0.26458332px"
         id="path2060"
         inkscape:connector-curvature="0" />
      <path
         d="m 51.994775,5.4983809 h 0.139578 l -0.68783,1.8384063 H 51.333351 L 50.648036,5.4983809 h 0.137063 l 0.462745,1.2511726 q 0.105627,0.2829284 0.142093,0.4250214 0.02515,-0.094309 0.09934,-0.2929881 z"
         style="font-style:normal;font-variant:normal;font-weight:normal;font-stretch:normal;font-size:2.57527781px;font-family:'Open sans light';-inkscape-font-specification:'Open sans light, ';stroke-width:0.26458332px"
         id="path2062"
         inkscape:connector-curvature="0" />
      <path
         d="M 53.455588,7.3367872 H 53.332357 V 5.9975925 q 0,-0.1823317 0.01509,-0.3784955 -0.01886,0.018862 -0.03898,0.036466 -0.02012,0.017604 -0.388555,0.3055627 l -0.07168,-0.08928 0.499212,-0.3734656 h 0.108141 z"
         style="font-style:normal;font-variant:normal;font-weight:normal;font-stretch:normal;font-size:2.57527781px;font-family:'Open sans light';-inkscape-font-specification:'Open sans light, ';stroke-width:0.26458332px"
         id="path2068"
         inkscape:connector-curvature="0" />
      <path
         d="M 55.21226,6.6879379 H 54.465328 L 54.208807,7.3367872 H 54.066714 L 54.8061,5.4908361 h 0.08174 l 0.724297,1.8459511 H 55.467524 Z M 54.511854,6.5722516 h 0.657652 L 54.919271,5.9095703 q -0.03144,-0.077963 -0.07545,-0.2162831 -0.03395,0.1207161 -0.07419,0.218798 z"
         style="font-style:normal;font-variant:normal;font-weight:normal;font-stretch:normal;font-size:2.57527781px;font-family:'Open sans light';-inkscape-font-specification:'Open sans light, ';stroke-width:0.26458332px"
         id="path2070"
         inkscape:connector-curvature="0" />
    </g>
    <g
       id="g2003"
       transform="matrix(0.9308616,0,0,0.9308616,-0.89828418,-7.1733531)">
      <path
         id="path1775"
         transform="scale(0.26458333)"
         d="m 142.47852,34.052734 c -2.91018,-10e-7 -5.2793,2.367169 -5.2793,5.277344 0,2.910176 2.36912,5.279301 5.2793,5.279297 2.76322,0 5.03322,-2.136943 5.25586,-4.84375 h 4.60546 c 0.22264,2.706807 2.49264,4.84375 5.25586,4.84375 1.45509,0 2.78173,-0.596175 3.73633,-1.550781 l -0.53906,-0.53125 c -0.81867,0.818668 -1.94644,1.320312 -3.19727,1.320312 -2.50165,0 -4.51757,-2.015924 -4.51758,-4.517578 0,-2.501653 2.01593,-4.525392 4.51758,-4.52539 1.25083,0 2.3786,0.511413 3.19727,1.330078 l 0.53906,-0.539063 c -0.9546,-0.954601 -2.28124,-1.542968 -3.73633,-1.542969 -2.72079,-10e-7 -4.96519,2.069222 -5.24609,4.716797 h -4.625 c -0.2809,-2.647574 -2.52531,-4.716796 -5.24609,-4.716797 z m 0,0.751954 c 2.50165,0 4.52539,2.023738 4.52539,4.52539 0,2.501654 -2.02374,4.517578 -4.52539,4.517578 -2.50166,4e-6 -4.51758,-2.015924 -4.51758,-4.517578 0,-2.501653 2.01592,-4.525392 4.51758,-4.52539 z"
         style="color:#000000;font-style:normal;font-variant:normal;font-weight:normal;font-stretch:normal;font-size:medium;line-height:normal;font-family:sans-serif;font-variant-ligatures:normal;font-variant-position:normal;font-variant-caps:normal;font-variant-numeric:normal;font-variant-alternates:normal;font-feature-settings:normal;text-indent:0;text-align:start;text-decoration:none;text-decoration-line:none;text-decoration-style:solid;text-decoration-color:#000000;letter-spacing:normal;word-spacing:normal;text-transform:none;writing-mode:lr-tb;direction:ltr;text-orientation:mixed;dominant-baseline:auto;baseline-shift:baseline;text-anchor:start;white-space:normal;shape-padding:0;clip-rule:nonzero;display:inline;overflow:visible;visibility:visible;opacity:1;isolation:auto;mix-blend-mode:normal;color-interpolation:sRGB;color-interpolation-filters:linearRGB;solid-color:#000000;solid-opacity:1;vector-effect:none;fill:#000000;fill-opacity:1;fill-rule:nonzero;stroke:none;stroke-width:0.75590551;stroke-linecap:round;stroke-linejoin:bevel;stroke-miterlimit:4;stroke-dasharray:none;stroke-dashoffset:0;stroke-opacity:1;paint-order:fill markers stroke;color-rendering:auto;image-rendering:auto;shape-rendering:auto;text-rendering:auto;enable-background:accumulate"
         inkscape:connector-curvature="0" />
      <path
         inkscape:connector-curvature="0"
         id="path1925"
         d="m 37.120095,10.405732 h 1.155737"
         style="fill:none;fill-rule:evenodd;stroke:#000000;stroke-width:0.26458332px;stroke-linecap:butt;stroke-linejoin:miter;stroke-opacity:1" />
      <path
         inkscape:connector-curvature="0"
         id="path1925-0"
         d="m 45.120095,10.405729 h 1.155737"
         style="fill:none;fill-rule:evenodd;stroke:#000000;stroke-width:0.26458332px;stroke-linecap:butt;stroke-linejoin:miter;stroke-opacity:1" />
      <path
         inkscape:connector-curvature="0"
         id="path1925-0-7"
         d="M 45.697964,9.8278608 V 10.983598"
         style="fill:none;fill-rule:evenodd;stroke:#000000;stroke-width:0.26458332px;stroke-linecap:butt;stroke-linejoin:miter;stroke-opacity:1" />
      <path
         id="path1775-9-0-3"
         d="m 45.697467,9.0097794 c -0.719875,0 -1.314222,0.547482 -1.388544,1.2479866 h -2.26635 l 0.0062,0.263549 h 2.257563 c 0.05891,0.716176 0.660027,1.281576 1.391129,1.281576 0.769985,0 1.396299,-0.62683 1.396299,-1.396814 0,-0.7699836 -0.626314,-1.3962976 -1.396299,-1.3962976 z m 0,0.198955 c 0.661895,0 1.196827,0.535447 1.196827,1.1973426 0,0.661896 -0.534932,1.195276 -1.196827,1.195276 -0.661895,0 -1.195273,-0.53338 -1.195273,-1.195276 0,-0.6618956 0.533378,-1.1973426 1.195273,-1.1973426 z"
         style="color:#000000;font-style:normal;font-variant:normal;font-weight:normal;font-stretch:normal;font-size:medium;line-height:normal;font-family:sans-serif;font-variant-ligatures:normal;font-variant-position:normal;font-variant-caps:normal;font-variant-numeric:normal;font-variant-alternates:normal;font-feature-settings:normal;text-indent:0;text-align:start;text-decoration:none;text-decoration-line:none;text-decoration-style:solid;text-decoration-color:#000000;letter-spacing:normal;word-spacing:normal;text-transform:none;writing-mode:lr-tb;direction:ltr;text-orientation:mixed;dominant-baseline:auto;baseline-shift:baseline;text-anchor:start;white-space:normal;shape-padding:0;clip-rule:nonzero;display:inline;overflow:visible;visibility:visible;opacity:1;isolation:auto;mix-blend-mode:normal;color-interpolation:sRGB;color-interpolation-filters:linearRGB;solid-color:#000000;solid-opacity:1;vector-effect:none;fill:#000000;fill-opacity:1;fill-rule:nonzero;stroke:none;stroke-width:0.19999999;stroke-linecap:round;stroke-linejoin:bevel;stroke-miterlimit:4;stroke-dasharray:none;stroke-dashoffset:0;stroke-opacity:1;paint-order:fill markers stroke;color-rendering:auto;image-rendering:auto;shape-rendering:auto;text-rendering:auto;enable-background:accumulate"
         inkscape:connector-curvature="0"
         sodipodi:nodetypes="sccccssssssss" />
      <path
         style="opacity:1;fill:#000000;fill-opacity:1;stroke:none;stroke-width:0.21485472;stroke-linecap:butt;stroke-linejoin:bevel;stroke-miterlimit:4;stroke-dasharray:none;stroke-opacity:1;paint-order:fill markers stroke"
         d="m 41.739869,9.6543539 c 0.416603,0 0.751991,0.3353882 0.751991,0.7519911 0,0.416604 -0.335388,0.751992 -0.751991,0.751992 -0.416603,0 -0.751992,-0.335388 -0.751992,-0.751992 0,-0.4166029 0.335389,-0.7519911 0.751992,-0.7519911 z"
         id="rect2235"
         inkscape:connector-curvature="0" />
    </g>
    <path
       style="font-style:normal;font-variant:normal;font-weight:normal;font-stretch:normal;font-size:2.57527781px;line-height:125%;font-family:'Open sans light';-inkscape-font-specification:'Open sans light, ';letter-spacing:0px;word-spacing:0px;fill:#000000;fill-opacity:1;stroke:none;stroke-width:0.24629045px;stroke-linecap:butt;stroke-linejoin:miter;stroke-opacity:1"
       d="M 0.47128906,1.4249917 V 2.2523314 H 1.2469523 C 1.2299409,2.2487817 1.217727,2.2421338 1.19941,2.2394123 v -0.00672 c 0.1162718,-0.018728 0.2044966,-0.061058 0.2645833,-0.1266073 0.060867,-0.06633 0.09095,-0.1489427 0.09095,-0.2480469 0,-0.1451446 -0.049207,-0.2537696 -0.1483113,-0.3255616 C 1.307528,1.4606845 1.1519847,1.4249895 0.94051056,1.4249895 Z m 0.11937256,0.1054201 h 0.34519856 c 0.16309262,0 0.28548292,0.025494 0.36741942,0.076998 0.082717,0.051503 0.1240234,0.1341162 0.1240234,0.2480469 1e-7,0.1139306 -0.036718,0.1978202 -0.1100708,0.2516642 -0.072572,0.053064 -0.1890978,0.079582 -0.3498494,0.079582 H 0.59066162 Z"
       id="path2005-0"
       inkscape:connector-curvature="0" />
  </g>
</svg>
